Coordinates
version=1
nRows=16
nColumns=36
inDegrees=yes

Units are S.I. units (second, meters, Newtons, ...)
If the header above contains a line with 'inDegrees', this indicates whether rotational values are in degrees (yes) or radians (no).

endheader
time	pelvis_tilt	pelvis_list	pelvis_rotation	pelvis_tx	pelvis_ty	pelvis_tz	hip_flexion_r	hip_adduction_r	hip_rotation_r	knee_angle_r	knee_angle_r_beta	ankle_angle_r	subtalar_angle_r	mtp_angle_r	hip_flexion_l	hip_adduction_l	hip_rotation_l	knee_angle_l	knee_angle_l_beta	ankle_angle_l	subtalar_angle_l	mtp_angle_l	lumbar_extension	lumbar_bending	lumbar_rotation	arm_flex_r	arm_add_r	arm_rot_r	elbow_flex_r	pro_sup_r	arm_flex_l	arm_add_l	arm_rot_l	elbow_flex_l	pro_sup_l
      0.00000000	     -3.56619817	     -0.69720270	     -0.46512174	     -0.91841886	      1.26453234	     -0.02300987	     10.53679670	      0.14256432	     -0.64327857	     14.20824770	      0.24798070	      2.31767640	    -22.71928035	     -5.86758255	      9.80999359	     -3.62811721	      1.83153665	     15.28901493	      0.26684365	     11.66925135	     -5.32932922	     -5.86758255	    -12.96884130	     -0.05203090	     -0.85516055	      0.74992729	     -5.97476419	      9.28421606	     26.02282975	     76.51637681	     -1.21488831	     -6.10989261	      9.72437985	     24.23674440	     70.86756823
      0.00416670	     -6.41444930	     -0.46109866	     -0.16809386	     -0.91788299	      1.26065399	     -0.02342036	     14.70426347	      0.29590831	      0.04418303	     16.65685142	      0.29071690	      6.38395091	    -21.92888191	     -6.12116648	     14.09895772	     -2.55237010	      4.24305478	     17.39689290	      0.30363306	     12.59011067	     -5.55945165	     -6.12116648	     -8.92949736	     -0.18226214	     -1.11333960	     -0.08667089	     -4.85403775	      6.45621532	     24.50856989	     74.42420771	     -1.74711683	     -4.96445378	      7.29331096	     22.75822307	     69.58538185
      0.00833330	     -7.86288212	      0.04193191	     -0.22909343	     -0.91767844	      1.25902351	     -0.02229746	     16.10953185	     -0.12604747	     -0.27611048	     16.29776988	      0.28444975	      6.18614654	    -22.50988851	     -6.73822502	     15.80084694	     -2.07768160	      4.93785106	     17.66565702	      0.30832388	     12.18827326	     -6.84807893	     -6.73822502	     -6.80027060	     -0.99082390	     -0.64112105	     -1.70264866	     -3.58601891	     -1.24013867	     25.67344946	     81.53703775	     -2.60209956	     -4.59058697	      2.19604595	     23.29517389	     79.39667089
      0.01250000	     -7.75265923	      0.20601296	     -0.14020809	     -0.91810137	      1.25978296	     -0.02233436	     16.00093121	     -0.27664694	     -0.06128092	     16.35547436	      0.28545688	      5.90046831	    -23.23425317	     -6.80245403	     15.59637682	     -1.80641949	      5.82391458	     17.53307882	      0.30600995	     11.71072346	     -8.49759858	     -6.80245403	     -6.82190779	     -1.28906633	     -0.53881700	     -1.86926421	     -3.42491652	     -1.54150384	     25.77087741	     80.38441093	     -2.64392737	     -4.82337588	      2.45036680	     23.31674705	     78.56320616
      0.01666670	     -7.85960584	      0.20767238	      0.05214756	     -0.91860529	      1.26139748	     -0.02301631	     15.99407193	     -0.32619730	     -0.36523660	     16.10725221	      0.28112458	      5.47262362	    -23.38653445	     -6.96777192	     15.70366754	     -1.64206363	      6.57954409	     17.46655816	      0.30484895	     11.12612370	     -9.94410505	     -6.96777192	     -6.67156062	     -1.17338577	     -0.56387490	     -2.09465423	     -3.44999112	     -1.55907984	     26.22835847	     78.10370711	     -2.64313768	     -4.80708932	      3.09646463	     23.37171643	     76.71271838
      0.02083330	     -6.96195977	      0.25885309	      0.11843708	     -0.91940137	      1.26374420	     -0.02200975	     14.82367266	     -0.27958547	     -0.00195130	     15.61352109	      0.27250735	      4.79012503	    -24.17585578	     -7.01601169	     14.55648305	     -1.56166363	      6.87116589	     17.03276012	      0.29727774	     10.64692869	    -10.74526398	     -7.01601169	     -8.04165941	     -1.17391383	     -0.28909323	     -2.09787285	     -3.65269988	     -0.89631068	     27.01571173	     78.83408114	     -2.15814299	     -5.08311505	      4.70972551	     23.98340319	     77.71045785
      0.02500000	     -7.04870544	      0.19814658	      0.30046312	     -0.91856550	      1.26201568	     -0.02148487	     14.83204853	     -0.19531010	      0.02146071	     15.42931611	      0.26929237	      4.31410884	    -24.74829655	     -7.07380118	     14.76162075	     -1.56634346	      7.14318280	     17.17647240	      0.29978600	     10.56280580	    -11.20309267	     -7.07380118	     -7.86417466	     -1.05258636	     -0.26468738	     -2.12498073	     -3.61413134	     -0.82302253	     26.91288562	     78.19853236	     -1.94257825	     -4.97809831	      4.84596883	     23.80831169	     77.10123865
      0.02916670	     -6.62853405	      0.18232157	      0.39696757	     -0.91922760	      1.26598622	     -0.02154920	     14.17623846	     -0.12526362	      0.14062162	     14.97747411	      0.26140624	      3.75953359	    -25.09339487	     -7.22562873	     14.18387030	     -1.53369074	      7.37826391	     16.87797054	      0.29457616	     10.09861187	    -11.56628911	     -7.22562873	     -8.52428903	     -1.01131649	     -0.22730210	     -2.10406411	     -3.59871316	     -1.66613952	     27.24461353	     85.10776704	     -1.76174617	     -4.91814910	      3.75787493	     24.21142713	     83.39657656
      0.03333330	     -6.27583309	      0.14162114	      0.56939631	     -0.91831733	      1.26432824	     -0.02191071	     13.62834733	     -0.07278154	      0.18356597	     14.62331830	      0.25522505	      3.30348350	    -25.51051831	     -7.26158206	     13.77530089	     -1.50417433	      7.74594000	     16.77170661	      0.29272150	      9.65704146	    -12.23651732	     -7.26158206	     -9.01904209	     -0.95001081	     -0.32177480	     -2.09987582	     -3.54720070	     -1.72699909	     27.48067373	     84.61024262	     -1.67955358	     -4.83466536	      3.21263641	     24.54828624	     82.85688494
      0.03750000	     -6.03472408	      0.13243192	      0.67320563	     -0.91848213	      1.26634620	     -0.02313736	     13.27329413	     -0.09219948	      0.21240289	     14.46892662	      0.25253041	      2.96046556	    -25.70383071	     -7.35511692	     13.42671670	     -1.41785702	      8.11143011	     16.56723689	      0.28915283	      9.22741697	    -12.69279259	     -7.35511692	     -9.34599404	     -0.88912132	     -0.45584503	     -1.99044115	     -3.57633708	     -1.93760385	     27.47083571	     86.78069507	     -1.66281198	     -4.64635812	      1.83701662	     24.74626402	     85.17633321
      0.04166670	     -5.64612275	      0.15130937	      0.72224922	     -0.91763557	      1.26798701	     -0.02261471	     12.63919881	     -0.09982367	      0.30788441	     14.09087881	      0.24593223	      2.66866787	    -25.91346720	     -7.36555390	     12.77491527	     -1.35075473	      8.36812586	     16.13579633	      0.28162277	      8.75662745	    -13.06344909	     -7.36555390	     -9.78340958	     -0.89575878	     -0.45437761	     -1.98118451	     -3.53913065	     -1.98197023	     27.48127030	     86.19292276	     -1.55876934	     -4.63464842	      1.63785706	     24.83370084	     84.65136622
      0.04583330	     -5.58035740	      0.11987738	      0.71996315	     -0.91674284	      1.26773972	     -0.02225553	     12.41358781	     -0.03088540	      0.43298765	     13.88278293	      0.24230027	      2.16552763	    -26.43359562	     -7.37811220	     12.55283661	     -1.34295107	      8.65567618	     15.93328789	      0.27808833	      8.63435566	    -13.19530769	     -7.37811220	     -9.74806058	     -0.84421721	     -0.48423992	     -2.03324829	     -3.50561030	     -1.93490495	     27.32521939	     84.96442739	     -1.57077107	     -4.60057445	      1.49553144	     24.72173276	     83.50210625
      0.05000000	     -5.19899766	      0.09795136	      0.68825565	     -0.91841386	      1.26630383	     -0.02151868	     11.97155344	      0.04210654	      0.47287200	     13.72025723	      0.23946366	      2.39293786	    -26.26451568	     -7.39406564	     12.06798771	     -1.37802204	      8.68147369	     15.78186658	      0.27544553	      8.75024469	    -13.04924093	     -7.39406564	    -10.36734634	     -0.82934005	     -0.46069309	     -1.94518559	     -3.54307725	     -1.54162719	     27.47881934	     84.06962454	     -1.42461936	     -4.68248342	      1.53682659	     24.97543724	     82.78220097
      0.05416670	     -4.96758473	      0.08902604	      0.68548420	     -0.91810711	      1.26872414	     -0.02125026	     11.63169332	      0.11875031	      0.65002642	     13.47611293	      0.23520254	      2.32644587	    -26.37563379	     -7.40646995	     11.71825005	     -1.42177665	      8.80070141	     15.59615969	      0.27220434	      8.66503227	    -12.99465497	     -7.40646995	    -10.68280911	     -0.83741401	     -0.45241835	     -1.93671133	     -3.55213159	     -1.32655218	     27.55752664	     83.80594235	     -1.35256002	     -4.76309572	      1.47658053	     25.06924616	     82.73866287
      0.05833330	     -4.72021984	      0.05435254	      0.71467588	     -0.91739527	      1.26900139	     -0.02112657	     11.25633437	      0.18921730	      0.66825105	     13.24290104	      0.23113223	      2.20245614	    -26.36547555	     -7.41682619	     11.38464799	     -1.47694819	      8.95912869	     15.50358208	      0.27058855	      8.72694323	    -12.90967738	     -7.41682619	    -11.02209183	     -0.78279490	     -0.49998205	     -1.97337762	     -3.59596456	     -1.28094449	     27.82847854	     84.32124144	     -1.35868052	     -4.79027232	      1.16713646	     25.28306187	     83.66169781
      0.06250000	     -4.73089133	      0.02455783	      0.71673216	     -0.91823749	      1.27042470	     -0.02065763	     11.23615072	      0.25559876	      0.71657593	     13.11124250	      0.22883435	      1.98622358	    -26.53199073	     -7.44695234	     11.37894611	     -1.52627724	      9.04371427	     15.47486611	      0.27008736	      8.70211168	    -12.87824187	     -7.44695234	    -11.04663327	     -0.77812150	     -0.52476219	     -1.96505863	     -3.45759317	     -2.46149228	     27.86301403	     89.22980094	     -1.37053785	     -4.60249008	     -1.02225091	     25.38635892	     90.23221968
